<?xml version="1.0" encoding="UTF-8"?> <svg xmlns="http://www.w3.org/2000/svg" width="2600" height="2600" viewBox="0 0 2600 2600"> <defs> <style>.cls-1{fill:#e30613;}.cls-2{fill:#fff;}</style> </defs> <title>FEEB logo white</title> <g id="Laag_2" data-name="Laag 2"> <rect class="cls-1" x="-71" y="-43" width="2790" height="2660"></rect> <path class="cls-2" d="M179.34,1325.11c2.17-102.62,77-186.65,174.32-204-.75,0-1.5-.07-2.26-.1C255,1119,175.1,1196.76,173.05,1294.78a179.91,179.91,0,0,0,7.18,54.39A213,213,0,0,1,179.34,1325.11Z"></path> <path class="cls-2" d="M477.49,1340.27l2.67-14.74-75.28,1.38c-4.54,14.19-8.73,30.18-10.92,38.88Z"></path> <path class="cls-2" d="M380.38,1403.14c1.93-9.7,4.57-21.55,8.2-35.71l.05,0c2-7.91,6.86-27.06,12.18-43.41.91-3,1.85-6.08,2.84-9.24,26.91-86.2,66.79-144.8,66.79-144.8l-13.36,1.76c-7.65,1.1-10.61,2.54-14.57,8.39-8.24,11.22-35.65,50.4-60.87,113.15-16.27,40.45-27.17,85-33,112.36C361.12,1405.08,374.64,1403.75,380.38,1403.14Z"></path> <path class="cls-2" d="M440.69,1399.68c-18.81,3.56-38.31,6.09-57.39,7.94-3.1.35-22.28,2.43-38.23,2.91h0c-30,1.66-56.72,1.82-74.76,1.76l-2.24.06c-.09,0-13.8-.62-15.49,9.23,0,0-3.35,24.67-2.93,38.7.51,16.7,2,22.35,1.92,24,.58,4.4,1.36,6.65,8.7,5,15.16-3.29,58.51-12.52,97.78-22.3,47.48-11.82,110.88-33.52,137.61-47.39,32.26-16.74,44.66-33.51,44.66-33.51l.58-16.59S500.31,1388.4,440.69,1399.68Z"></path> <path class="cls-2" d="M837.34,1242.8c0-7.85,1.87-13.52,5.56-17.21-10.46,1.25-13.83,6-21.77,23.7l-34,82c-8,19.15-9.17,25.13-9.17,53.75v82.58h59.32Z"></path> <polygon class="cls-2" points="844 1379.91 933.46 1379.91 956.17 1325.14 844 1325.14 844 1379.91"></polygon> <path class="cls-2" d="M860.15,1225.15h-.07c-11.44,0-16.12,5.15-16.12,17.77l0,36.65h125.5v-54.43Z"></path> <path class="cls-2" d="M1289.31,1242.8c0-7.91,1.89-13.59,5.64-17.29-10.47,1.25-13.7,6.34-22,23.78l-34.35,83c-6.54,15.43-8.79,23.29-8.79,47.82v87.57h59.35Z"></path> <path class="cls-2" d="M1312.06,1225.16c-11.45,0-16.12,5.15-16.12,17.77v37h42.6c32.13,0,35.83,12.39,35.83,21.7,0,12.4-8,22.09-25.2,25.11l34.36,43.57c23.21-4.42,53.29-27.45,53.29-69,0-46.26-38.27-76.14-97.51-76.14h-27.26Z"></path> <polygon class="cls-2" points="1341.58 1328.02 1316.53 1387.96 1376.95 1467.66 1450.42 1467.66 1341.58 1328.02"></polygon> <path class="cls-2" d="M2306.17,1225.15h-87.28c-18.69,0-24.11,2.19-31.93,19.45l-14.73,35.32h74.62v187.75h26.25l33.1-79.21Z"></path> <rect class="cls-2" x="2312.88" y="1225.15" width="83.12" height="54.77"></rect> <rect class="cls-2" x="1545.51" y="1324.03" width="106.97" height="55.13"></rect> <path class="cls-2" d="M1538.78,1242.8c0-7.71,1.79-13.32,5.35-17-10.77,1.56-13.92,6.83-21.44,23.39l-32.88,79.38c-10,21.72-10.11,43.29-10.38,52.92v86.2h59.38Z"></path> <polygon class="cls-2" points="1545.61 1467.66 1640.92 1467.66 1663.47 1413.25 1545.7 1413.25 1545.61 1467.66"></polygon> <path class="cls-2" d="M1561.6,1225.15h-.07c-11.45,0-16.12,5.15-16.12,17.77l0,37H1664v-54.77Z"></path> <polygon class="cls-2" points="1115.33 1233.58 1083.13 1310.74 1102.19 1356.74 1089.8 1356.74 1067.66 1410.82 1124.6 1410.82 1148.09 1467.66 1212.47 1467.66 1115.33 1233.58"></polygon> <path class="cls-2" d="M1111.77,1225.15l-40.41-.07c-21.45,0-24.59,1.88-34.12,22.52l-90.76,220.07h64.37Z"></path> <path class="cls-2" d="M2046,1371.84c28.54,6.5,46.83,11.33,49.46,23.16a34,34,0,0,0,5.05-16.51c1.67-31.31-20-49.09-59.5-66.5-27.41-12.08-34.88-17.73-34.88-34.73,0-15.77,7.41-30.62,20.87-41.79a77.81,77.81,0,0,1,28.44-14.72c-1.18,0-2.37-.09-3.56-.09-69.75,0-101,36.51-101,72.69C1950.94,1350.16,2003.67,1362.19,2046,1371.84Z"></path> <path class="cls-2" d="M2126.31,1300.31l20.18-48.13c-13.52-12.09-45.34-28.39-68.75-28.39-17,0-34,5.89-46.75,16.45-12,10-18.63,23.12-18.63,37a23.87,23.87,0,0,0,2.05,9.72c5-11.83,27.79-13.25,38.26-13.25C2104.22,1273.73,2126.31,1300.31,2126.31,1300.31Z"></path> <path class="cls-2" d="M2067.21,1318.12c27.09,15.52,41,33.07,39.52,60.7-.86,16.11-9.78,25.28-16.47,30.7-8.51,6.57-24.93,9.57-39.51,9.57-33,0-55.11-9.32-69.52-29.31l-.42-.57-23.66,57.18c23.75,17.65,53.45,25.76,92.81,25.76,63.79,0,108.33-30.75,108.33-74.78C2158.29,1340.71,2107.27,1327,2067.21,1318.12Z"></path> <path class="cls-2" d="M494.41,1562.3c74.21-27.56,95.33-115.25,100.83-176.21-25.18,91.23-109.69,157.36-208.64,155.26a211.48,211.48,0,0,1-74.17-15.07,213.36,213.36,0,0,0,170.09,39.89C486.69,1565,490.73,1563.67,494.41,1562.3Z"></path> <path class="cls-2" d="M509.8,1154.24a211.58,211.58,0,0,1,93.07,175h0c1.25,27.09.94,80.2-15.3,131.51-13.28,42-34.11,72.86-62.07,92.3,74.79-31.9,128-105.29,129.78-191.86C657.31,1265.45,596,1183.12,509.8,1154.24Z"></path> <polygon class="cls-2" points="1847.18 1233.65 1814.99 1310.81 1834.02 1356.74 1821.62 1356.74 1799.48 1410.82 1856.42 1410.82 1879.92 1467.66 1944.3 1467.66 1847.18 1233.65"></polygon> <path class="cls-2" d="M1843.64,1225.15l-40.45-.07c-21.46,0-24.6,1.88-34.13,22.52l-90.75,220.07h64.36Z"></path> </g> </svg> 